<svg xmlns="http://www.w3.org/2000/svg" width="226" height="54" fill="none" viewBox="0 0 226 54">
  <path fill="currentColor" d="m10.975 36.196 1.006.704v.823H6.962 9.88 3.906V36.9l1.193-.704V15.11l-1.193-.704v-.823h7.069v22.613Zm15.246 1.527h-4.523V36.9l.841-.704V22.39c0-2.572-.403-4.454-1.21-5.646-.805-1.193-2.145-1.623-4.017-1.292-1.255.232-2.456.847-3.6 1.846-1.146.999-2.17 2.213-3.075 3.643a25.384 25.384 0 0 0-2.265 4.533v-2.662c1.257-2.678 2.743-4.875 4.458-6.591 1.715-1.717 3.697-2.675 5.947-2.875 2.32-.239 4.205.006 5.656.736 1.453.728 2.506 1.807 3.162 3.237.656 1.429.984 3.12.984 5.071v13.806l.923.704v.823h-4.77 1.49Zm4.592-12.118c0-2.518.549-4.727 1.647-6.628a11.305 11.305 0 0 1 4.547-4.4c1.933-1.031 4.104-1.548 6.513-1.548 4.201 0 7.377 1.226 9.526 3.679 2.15 2.452 3.135 5.836 2.954 10.152h-5.79c0-3.48-.344-6.092-1.031-7.84-.687-1.746-1.534-3.027-2.541-3.842S44.598 13.97 43.537 14c-1.07.029-2.107.39-3.11 1.08-1.003.691-1.864 1.857-2.583 3.498-.72 1.64-1.084 3.983-1.095 7.028-.012 1.952.321 3.574.998 4.866.677 1.292 1.565 2.34 2.662 3.142 1.098.803 2.272 1.317 3.523 1.543 1.173.172 2.444.191 3.815.058a11.32 11.32 0 0 0 3.891-1.098 6.556 6.556 0 0 0 2.856-2.655l.72.446c-1.028 1.998-2.545 3.554-4.552 4.669-2.006 1.115-4.326 1.682-6.96 1.702-2.668.02-4.976-.482-6.923-1.504-1.947-1.023-3.429-2.49-4.444-4.4-1.015-1.912-1.523-4.169-1.523-6.77Zm24.626-1.495v2.75H34.95v-.731l20.49-2.019Zm.303-10.528c.966-.667 1.79-1.535 2.473-2.604a13.386 13.386 0 0 0 1.57-3.458c.362-1.237.538-2.438.527-3.604h5.087c-.139 2.43-.97 4.726-2.493 6.887a3.774 3.774 0 0 1-.634.605 8.175 8.175 0 0 1-2.305 1.546 18.85 18.85 0 0 1-2.694.948l.03.188.712-.077c3.915-.277 6.488-.42 7.72-.431h4.328v3.855h-4.829v10.682c0 2.155.55 3.601 1.65 4.34 1.099.737 2.385 1.036 3.86.894l1.495 4.053c-2.9.544-5.246.39-7.04-.462-1.792-.853-3.055-2.016-3.788-3.491-.733-1.476-1.1-3.077-1.1-4.805V17.437h-4.569v-3.855Zm40.198 24.14h-4.523v-.824l.841-.703V22.389c0-2.552-.403-4.424-1.21-5.616-.805-1.193-2.145-1.634-4.017-1.322-1.255.211-2.455.817-3.6 1.816-1.146.999-2.17 2.218-3.074 3.658a25.855 25.855 0 0 0-2.266 4.547V22.81c1.257-2.696 2.743-4.903 4.458-6.62 1.715-1.717 3.697-2.665 5.947-2.845 2.32-.199 4.205.061 5.657.78 1.452.719 2.506 1.788 3.161 3.207.656 1.42.984 3.105.984 5.057v13.806l.841.703v.824h-4.523 1.324Zm-14.738-1.527.84.703v.824H77.52h1.49-4.524v-.824l.841-.703V5.443l-1.006-.704v-.823h6.882v32.279Zm19.236-10.59c0-2.518.549-4.727 1.647-6.628a11.302 11.302 0 0 1 4.547-4.4c1.933-1.031 4.104-1.548 6.513-1.548 4.201 0 7.377 1.226 9.526 3.679 2.15 2.452 3.135 5.836 2.954 10.152h-5.79c0-3.48-.344-6.092-1.031-7.84-.687-1.746-1.534-3.027-2.541-3.842s-2.04-1.208-3.101-1.179c-1.07.029-2.107.39-3.11 1.08-1.003.691-1.864 1.857-2.583 3.498-.719 1.64-1.084 3.983-1.095 7.028-.011 1.952.321 3.574.998 4.866.677 1.292 1.564 2.34 2.662 3.142 1.098.803 2.272 1.317 3.524 1.543 1.172.172 2.443.191 3.814.058a11.32 11.32 0 0 0 3.891-1.098 6.558 6.558 0 0 0 2.856-2.655l.72.446c-1.028 1.998-2.545 3.554-4.552 4.669-2.006 1.115-4.326 1.682-6.96 1.702-2.668.02-4.976-.482-6.923-1.504-1.947-1.023-3.429-2.49-4.444-4.4-1.015-1.912-1.522-4.169-1.522-6.77Zm24.626-1.495v2.75h-20.49v-.731l20.49-2.019Zm9.258 12.084 1.006.704v.823h-5.018 2.919-5.975v-.823l1.193-.704V15.108l-1.193-.703v-.823h7.068v22.612Zm-.472-16.008a9.876 9.876 0 0 1 2.397-4.317 8.7 8.7 0 0 1 4.267-2.521c1.671-.43 3.426-.274 5.265.464l-.604 6.319h-.981c-.775-1.663-1.899-2.698-3.371-3.107-1.472-.41-2.855-.225-4.149.555-1.295.78-2.084 1.945-2.368 3.498l-.456-.891Zm24.62 18.091c-2.761 0-5.13-.552-7.107-1.657-1.977-1.105-3.469-2.61-4.477-4.516-1.007-1.907-1.511-4.051-1.511-6.435 0-2.345.563-4.478 1.69-6.4 1.127-1.921 2.687-3.437 4.679-4.546 1.992-1.11 4.235-1.664 6.726-1.664 2.631 0 4.934.517 6.91 1.551 1.977 1.034 3.506 2.51 4.589 4.426 1.083 1.916 1.624 4.127 1.624 6.633 0 2.344-.555 4.474-1.664 6.39-1.11 1.916-2.658 3.432-4.644 4.546-1.985 1.115-4.257 1.672-6.815 1.672Zm.813-1.032c1.422-.11 2.627-.644 3.613-1.6.987-.957 1.708-2.31 2.163-4.063.456-1.752.601-3.913.436-6.483-.165-2.507-.598-4.597-1.299-6.271-.701-1.675-1.619-2.919-2.754-3.732-1.135-.813-2.408-1.165-3.818-1.054-1.391.09-2.582.63-3.575 1.618-.991.988-1.71 2.364-2.155 4.127-.446 1.762-.586 3.908-.421 6.437.145 2.55.565 4.654 1.262 6.312.696 1.658 1.606 2.887 2.73 3.689 1.124.801 2.397 1.141 3.818 1.02Zm20.93 11.329 1.155.703v.823h-5.497 2.809-5.496v-.823l1.154-.703V15.11l-1.072-.704v-.823h6.947v34.99Zm7.324-10.475c-2.008-.153-3.753-.76-5.235-1.821-1.482-1.061-2.619-2.484-3.411-4.269-.793-1.785-1.189-3.898-1.189-6.34 0-2.356.416-4.445 1.246-6.268.831-1.823 1.995-3.262 3.493-4.318 1.497-1.056 3.196-1.66 5.096-1.812 2.34-.304 4.542.065 6.606 1.11 2.064 1.044 3.717 2.576 4.959 4.595 1.242 2.02 1.863 4.25 1.863 6.694 0 2.408-.615 4.614-1.847 6.617-1.231 2.004-2.878 3.538-4.942 4.604-2.064 1.066-4.277 1.468-6.639 1.208Zm.017-1.074c1.378.033 2.625-.372 3.741-1.215 1.115-.844 1.999-2.126 2.652-3.849.652-1.722.978-3.82.978-6.291 0-2.398-.326-4.448-.978-6.15-.653-1.7-1.539-2.976-2.661-3.824-1.121-.849-2.365-1.262-3.732-1.24-1.356.02-2.581.453-3.675 1.297-1.093.843-1.956 2.104-2.587 3.784-.631 1.68-.947 3.724-.947 6.133-.019 2.452.288 4.525.924 6.22.635 1.696 1.5 2.967 2.594 3.815a6.121 6.121 0 0 0 3.691 1.32Zm29.254-17.208c-.163-1.565-.708-2.87-1.634-3.915-.926-1.044-2.08-1.577-3.461-1.597-1.145-.02-2.112.16-2.901.54-.789.379-1.356.875-1.702 1.488a2.92 2.92 0 0 0-.363 1.925c.113.724.484 1.333 1.112 1.825.629.493 1.595 1.01 2.898 1.551.395.194.824.375 1.287.544.462.169.933.355 1.411.56 2.975 1.193 5.155 2.414 6.54 3.663 1.386 1.248 2.07 2.86 2.054 4.837-.015 1.526-.445 2.816-1.291 3.868-.845 1.053-1.977 1.84-3.395 2.36-1.418.52-2.964.78-4.636.78-2.444 0-4.711-.562-6.801-1.69-2.089-1.126-3.403-3.232-3.942-6.318l4.68-.576.41.326c.417 2.481 1.201 4.311 2.35 5.49 1.15 1.177 2.47 1.755 3.96 1.733 1.145-.01 2.112-.211 2.902-.602.789-.392 1.36-.926 1.711-1.604.35-.677.432-1.414.246-2.21a2.807 2.807 0 0 0-.903-1.512c-.467-.413-1.168-.828-2.104-1.246a39.658 39.658 0 0 0-1.78-.773c-.662-.27-1.33-.55-2.004-.838-1.977-.83-3.575-1.629-4.795-2.399-1.219-.77-2.158-1.659-2.816-2.668-.657-1.008-.976-2.197-.955-3.566.02-1.337.446-2.516 1.277-3.537.832-1.022 1.949-1.81 3.352-2.364 1.402-.554 2.951-.827 4.645-.818 2.183.018 4.165.528 5.948 1.53 1.782 1.001 3.024 2.558 3.726 4.67l-4.583.774-.443-.23Z"/>
</svg>
