<svg viewBox="0 0 1000 560" xmlns="http://www.w3.org/2000/svg" font-family="'Archivo','Helvetica Neue',Arial,sans-serif">
  <!-- Extended Command Center (dark). Fonts referenced, not embedded:
       Archivo (display) + JetBrains Mono (labels). Falls back gracefully. -->
  <defs>
    <radialGradient id="glow" cx="50%" cy="30%" r="60%">
      <stop offset="0%" stop-color="#8C73FF" stop-opacity="0.10"/>
      <stop offset="100%" stop-color="#8C73FF" stop-opacity="0"/>
    </radialGradient>
    <style>
      .mono{font-family:'JetBrains Mono','Courier New',monospace;}
      .ink{fill:#ECECE6;} .mut{fill:#9A9A92;} .faint{fill:#6E6E70;} .dim{fill:#5E5E64;}
      .lime{fill:#C8FF6E;} .violet{fill:#8C73FF;}
      .lbl{font-size:8.5px;letter-spacing:1.2px;}
      .item{font-size:11px;}
      .tlabel{font-size:8px;letter-spacing:1px;}
      .tval{font-weight:800;font-size:23px;letter-spacing:-0.5px;}
    </style>
  </defs>

  <!-- card -->
  <rect x="0.5" y="0.5" width="999" height="559" rx="10" fill="#16161C" stroke="rgba(255,255,255,0.12)"/>
  <rect x="0.5" y="0.5" width="999" height="559" rx="10" fill="url(#glow)"/>

  <!-- window bar -->
  <circle cx="20" cy="23" r="4.5" fill="rgba(255,255,255,0.18)"/>
  <circle cx="36" cy="23" r="4.5" fill="rgba(255,255,255,0.18)"/>
  <circle cx="52" cy="23" r="4.5" fill="rgba(255,255,255,0.18)"/>
  <text x="72" y="28" class="ink" font-weight="700" font-size="14">Command Center</text>
  <text x="210" y="27" class="mono faint" font-size="9">Every metric derived from your model inputs</text>
  <line x1="0" y1="46" x2="1000" y2="46" stroke="rgba(255,255,255,0.09)"/>

  <!-- rail (extended to full height) -->
  <line x1="170" y1="46" x2="170" y2="560" stroke="rgba(255,255,255,0.08)"/>
  <text x="16" y="72" class="mono dim lbl">PERSONA VIEWS</text>
  <!-- active CFO -->
  <rect x="0" y="80" width="170" height="20" fill="rgba(200,255,110,0.07)"/>
  <rect x="0" y="80" width="2" height="20" fill="#C8FF6E"/>
  <text x="16" y="94" class="mono item lime">CFO View</text>
  <text x="16" y="115" class="mono item mut">CEO View</text>
  <text x="16" y="136" class="mono item mut">CRO View</text>
  <text x="16" y="157" class="mono item mut">CMO View</text>
  <text x="16" y="178" class="mono item mut">VC View</text>
  <text x="16" y="199" class="mono item mut">PE View</text>
  <text x="16" y="220" class="mono item mut">Board View</text>
  <text x="16" y="241" class="mono item mut">RevOps View</text>

  <text x="16" y="270" class="mono dim lbl">REVENUE</text>
  <text x="16" y="292" class="mono item mut">Target Tracker</text>
  <text x="16" y="313" class="mono item mut">Glidescope</text>
  <text x="16" y="334" class="mono item mut">QBR Metrics</text>
  <text x="16" y="355" class="mono item mut">Weekly Tracker</text>

  <text x="16" y="384" class="mono dim lbl">PIPELINE</text>
  <text x="16" y="406" class="mono item mut">Funnel Health</text>
  <text x="16" y="427" class="mono item mut">Marketing Plan</text>
  <text x="16" y="448" class="mono item mut">AE Hiring Plan</text>
  <text x="16" y="469" class="mono item mut">Pipeline</text>

  <text x="16" y="498" class="mono dim lbl">GTM ECONOMICS</text>
  <text x="16" y="520" class="mono item mut">S&amp;M Budget</text>
  <text x="16" y="541" class="mono item mut">CAC Breakdown</text>

  <!-- directional note -->
  <rect x="190" y="62" width="2" height="20" fill="#C8FF6E"/>
  <text x="200" y="76" class="mono lime" font-size="10">Directional · not forecast — 27/28 hard-to-measure inputs still at defaults</text>

  <!-- metric tiles (row 1) -->
  <g>
    <rect x="190" y="94" width="183" height="80" rx="4" fill="none" stroke="rgba(255,255,255,0.10)"/>
    <text x="204" y="118" class="mono tlabel faint">TARGET ARR</text>
    <text x="204" y="148" class="ink tval">$20.0M</text>

    <rect x="385" y="94" width="183" height="80" rx="4" fill="none" stroke="rgba(255,255,255,0.10)"/>
    <text x="399" y="118" class="mono tlabel faint">LTV : CAC</text>
    <text x="399" y="148" class="violet tval">656.6x</text>

    <rect x="580" y="94" width="183" height="80" rx="4" fill="none" stroke="rgba(255,255,255,0.10)"/>
    <text x="594" y="118" class="mono tlabel faint">MAGIC NUMBER</text>
    <text x="594" y="148" class="ink tval">3.46</text>

    <rect x="775" y="94" width="183" height="80" rx="4" fill="none" stroke="rgba(255,255,255,0.10)"/>
    <text x="789" y="118" class="mono tlabel faint">RULE OF 40</text>
    <text x="789" y="148" class="lime tval">302</text>
  </g>

  <!-- funnel health -->
  <rect x="190" y="190" width="768" height="150" rx="4" fill="none" stroke="rgba(255,255,255,0.10)"/>
  <text x="206" y="216" class="mono faint" font-size="9" letter-spacing="1px">FUNNEL HEALTH</text>
  <text x="942" y="216" class="mono lime" font-size="9" letter-spacing="1px" text-anchor="end">GRADE B</text>

  <g class="mono">
    <text x="274" y="256" class="violet" font-weight="800" font-size="17" text-anchor="middle" font-family="'Archivo',sans-serif">30%</text>
    <rect x="206" y="266" width="137" height="5" rx="2.5" fill="rgba(255,255,255,0.08)"/>
    <rect x="206" y="266" width="41" height="5" rx="2.5" fill="#C8FF6E"/>
    <text x="274" y="290" class="lime" font-size="7.5" letter-spacing="1px" text-anchor="middle">GOOD</text>

    <text x="425" y="256" class="violet" font-weight="800" font-size="17" text-anchor="middle" font-family="'Archivo',sans-serif">40%</text>
    <rect x="357" y="266" width="137" height="5" rx="2.5" fill="rgba(255,255,255,0.08)"/>
    <rect x="357" y="266" width="55" height="5" rx="2.5" fill="#C8FF6E"/>
    <text x="425" y="290" class="lime" font-size="7.5" letter-spacing="1px" text-anchor="middle">GOOD</text>

    <text x="576" y="256" class="violet" font-weight="800" font-size="17" text-anchor="middle" font-family="'Archivo',sans-serif">75%</text>
    <rect x="508" y="266" width="137" height="5" rx="2.5" fill="rgba(255,255,255,0.08)"/>
    <rect x="508" y="266" width="103" height="5" rx="2.5" fill="#C8FF6E"/>
    <text x="576" y="290" class="lime" font-size="7.5" letter-spacing="1px" text-anchor="middle">GOOD</text>

    <text x="727" y="256" class="violet" font-weight="800" font-size="17" text-anchor="middle" font-family="'Archivo',sans-serif">50%</text>
    <rect x="659" y="266" width="137" height="5" rx="2.5" fill="rgba(255,255,255,0.08)"/>
    <rect x="659" y="266" width="68" height="5" rx="2.5" fill="#C8FF6E"/>
    <text x="727" y="290" class="lime" font-size="7.5" letter-spacing="1px" text-anchor="middle">GOOD</text>

    <text x="878" y="256" class="violet" font-weight="800" font-size="17" text-anchor="middle" font-family="'Archivo',sans-serif">30%</text>
    <rect x="810" y="266" width="137" height="5" rx="2.5" fill="rgba(255,255,255,0.08)"/>
    <rect x="810" y="266" width="41" height="5" rx="2.5" fill="#C8FF6E"/>
    <text x="878" y="290" class="lime" font-size="7.5" letter-spacing="1px" text-anchor="middle">GOOD</text>
  </g>

  <g class="mono faint" font-size="7.5" letter-spacing="0.5px" text-anchor="middle">
    <text x="274" y="320">INQUIRY→MQL</text>
    <text x="425" y="320">MQL→SQL</text>
    <text x="576" y="320">SQL→MEETING</text>
    <text x="727" y="320">MEETING→SQO</text>
    <text x="878" y="320">SQO→WON</text>
  </g>

  <!-- ════════════ EXTENDED SECTION ════════════ -->

  <!-- ARR Trajectory chart -->
  <rect x="190" y="358" width="375" height="190" rx="4" fill="none" stroke="rgba(255,255,255,0.10)"/>
  <text x="206" y="382" class="mono faint" font-size="9" letter-spacing="1px">ARR TRAJECTORY · 24 MONTHS</text>
  <text x="549" y="382" class="mono lime" font-size="9" letter-spacing="1px" text-anchor="end">+184%</text>
  <text x="200" y="412" class="mono dim" font-size="7" text-anchor="end">20M</text>
  <text x="200" y="465" class="mono dim" font-size="7" text-anchor="end">10M</text>
  <text x="200" y="518" class="mono dim" font-size="7" text-anchor="end">5M</text>
  <line x1="206" y1="410" x2="549" y2="410" stroke="rgba(255,255,255,0.05)" stroke-dasharray="2 3"/>
  <line x1="206" y1="463" x2="549" y2="463" stroke="rgba(255,255,255,0.05)" stroke-dasharray="2 3"/>
  <line x1="206" y1="516" x2="549" y2="516" stroke="rgba(255,255,255,0.05)" stroke-dasharray="2 3"/>
  <polygon points="210,515 240,508 270,498 300,485 330,468 360,452 390,432 420,410 450,390 480,372 510,358 540,348 540,520 210,520" fill="rgba(140,115,255,0.12)"/>
  <polyline points="210,515 240,508 270,498 300,485 330,468 360,452 390,432 420,410 450,390 480,372 510,358 540,348" stroke="#8C73FF" stroke-width="2.5" fill="none" stroke-linejoin="round" stroke-linecap="round"/>
  <circle cx="540" cy="348" r="3.5" fill="#8C73FF"/>
  <text x="220" y="538" class="mono dim" font-size="7">M1</text>
  <text x="370" y="538" class="mono dim" font-size="7" text-anchor="middle">M12</text>
  <text x="540" y="538" class="mono dim" font-size="7" text-anchor="end">M24</text>

  <!-- Glidescope chart -->
  <rect x="585" y="358" width="373" height="190" rx="4" fill="none" stroke="rgba(255,255,255,0.10)"/>
  <text x="601" y="382" class="mono faint" font-size="9" letter-spacing="1px">GLIDESCOPE · PLAN VS ACTUAL</text>
  <text x="942" y="382" class="mono lime" font-size="9" letter-spacing="1px" text-anchor="end">ON TRACK</text>
  <line x1="601" y1="410" x2="944" y2="410" stroke="rgba(255,255,255,0.05)" stroke-dasharray="2 3"/>
  <line x1="601" y1="463" x2="944" y2="463" stroke="rgba(255,255,255,0.05)" stroke-dasharray="2 3"/>
  <line x1="601" y1="516" x2="944" y2="516" stroke="rgba(255,255,255,0.05)" stroke-dasharray="2 3"/>
  <text x="595" y="412" class="mono dim" font-size="7" text-anchor="end">$20M</text>
  <text x="595" y="465" class="mono dim" font-size="7" text-anchor="end">$12M</text>
  <text x="595" y="518" class="mono dim" font-size="7" text-anchor="end">$5M</text>
  <polyline points="610,508 650,495 690,478 730,460 770,440 810,418 850,395 890,372 935,348" stroke="#9A9A92" stroke-width="1.5" stroke-dasharray="3 3" fill="none"/>
  <polyline points="610,508 650,490 690,468 730,448 770,425 810,400 850,370 880,342" stroke="#C8FF6E" stroke-width="2.5" fill="none" stroke-linejoin="round" stroke-linecap="round"/>
  <circle cx="880" cy="342" r="3.5" fill="#C8FF6E"/>
  <circle cx="780" cy="384" r="2.5" fill="#9A9A92"/>
  <text x="788" y="387" class="mono mut" font-size="7" letter-spacing="0.5px">PLAN</text>
  <circle cx="828" cy="384" r="2.5" fill="#C8FF6E"/>
  <text x="836" y="387" class="mono lime" font-size="7" letter-spacing="0.5px">ACTUAL</text>
  <text x="615" y="538" class="mono dim" font-size="7">Q1</text>
  <text x="775" y="538" class="mono dim" font-size="7" text-anchor="middle">Q4</text>
  <text x="935" y="538" class="mono dim" font-size="7" text-anchor="end">Q8</text>
</svg>
