<svg viewBox="0 0 1360 884" xmlns="http://www.w3.org/2000/svg">
<defs><style>
 .mono{font-family:'JetBrains Mono','Courier New',monospace;}
 .ink{fill:#15151A;}.mut{fill:#56564E;}.faint{fill:#8E8A80;}.dim{fill:#9A968C;}
 .v{fill:#5B3DF0;}.g{fill:#2E9E4F;}.a{fill:#F2B23C;}.cy{fill:#2E8FB5;}
</style>
<linearGradient id="lg" x1="0" y1="0" x2="1" y2="1">
 <stop offset="0%" stop-color="#C8FF6E"/><stop offset="100%" stop-color="#5B3DF0"/></linearGradient>
</defs>
<rect x="54" y="52" width="1300" height="828" rx="16" fill="#6B4DF5"/>
<rect x="40" y="34" width="1300" height="828" rx="16" fill="#7A5BFF"/>
<rect x="24" y="12" width="1300" height="828" rx="16" fill="#E6E6E1" stroke="rgba(0,0,0,0.10)" stroke-width="1"/>
<line x1="24" y1="52" x2="1324" y2="52" stroke="rgba(0,0,0,0.08)" stroke-width="1"/>
<text x="46" y="38" font-family="'JetBrains Mono','Courier New',monospace" font-size="10" class="mut">← netherops</text>
<text x="1174" y="38" font-family="'JetBrains Mono','Courier New',monospace" font-size="10" font-weight="700" letter-spacing="1" class="v">OPPTYCON</text>
<rect x="1254" y="25" width="52" height="18" rx="3" fill="none" stroke="rgba(0,0,0,0.18)" stroke-width="1"/>
<text x="1264" y="38" font-family="'JetBrains Mono','Courier New',monospace" font-size="9" class="mut">☀ L</text>
<line x1="256" y1="52" x2="256" y2="840" stroke="rgba(0,0,0,0.08)" stroke-width="1"/>
<line x1="1006" y1="52" x2="1006" y2="840" stroke="rgba(0,0,0,0.08)" stroke-width="1"/>
<!-- Real NetherOps mark — angular wave glyph from canonical brand logo (assets/netherops-logo-*.svg) -->
<g transform="matrix(0.024,0,0,-0.024,36,107)">
  <path d="M804 0H1063L1368 382 1054 732H824L1138 376 933 146 547 729 549 732H320L5 382 310 0H570L235 376 419 584 804 0Z" fill="#5B3DF0"/>
</g>
<text x="86" y="103" font-family="'Archivo','Helvetica Neue',Arial,sans-serif" font-size="16" font-weight="700" class="ink">netherops</text>
<text x="42" y="122" font-family="'JetBrains Mono','Courier New',monospace" font-size="9" letter-spacing="1.5" class="dim">OPPTYCON</text>
<rect x="24" y="144" width="232" height="30" rx="0" fill="rgba(91,61,240,0.12)"/>
<rect x="24" y="144" width="3" height="30" rx="0" fill="#5B3DF0"/>
<text x="60" y="164" font-family="'Archivo','Helvetica Neue',Arial,sans-serif" font-size="12" font-weight="700" class="v">Command Center</text>
<circle cx="49" cy="159" r="4" fill="none" stroke="#5B3DF0" stroke-width="1.5"/>
<text x="42" y="202" font-family="'JetBrains Mono','Courier New',monospace" font-size="9" letter-spacing="1.2" class="dim">PERSONA VIEWS</text>
<text x="234" y="202" font-family="'JetBrains Mono','Courier New',monospace" font-size="8" class="dim">▾</text>
<rect x="42" y="217" width="11" height="11" rx="2" fill="none" stroke="rgba(0,0,0,0.22)" stroke-width="1"/>
<text x="62" y="228" font-family="'Archivo','Helvetica Neue',Arial,sans-serif" font-size="11" class="mut">CFO View</text>
<rect x="42" y="244" width="11" height="11" rx="2" fill="none" stroke="rgba(0,0,0,0.22)" stroke-width="1"/>
<text x="62" y="255" font-family="'Archivo','Helvetica Neue',Arial,sans-serif" font-size="11" class="mut">CEO View</text>
<rect x="42" y="271" width="11" height="11" rx="2" fill="none" stroke="rgba(0,0,0,0.22)" stroke-width="1"/>
<text x="62" y="282" font-family="'Archivo','Helvetica Neue',Arial,sans-serif" font-size="11" class="mut">CRO View</text>
<rect x="42" y="298" width="11" height="11" rx="2" fill="none" stroke="rgba(0,0,0,0.22)" stroke-width="1"/>
<text x="62" y="309" font-family="'Archivo','Helvetica Neue',Arial,sans-serif" font-size="11" class="mut">CMO View</text>
<rect x="42" y="325" width="11" height="11" rx="2" fill="none" stroke="rgba(0,0,0,0.22)" stroke-width="1"/>
<text x="62" y="336" font-family="'Archivo','Helvetica Neue',Arial,sans-serif" font-size="11" class="mut">VC View</text>
<rect x="42" y="352" width="11" height="11" rx="2" fill="none" stroke="rgba(0,0,0,0.22)" stroke-width="1"/>
<text x="62" y="363" font-family="'Archivo','Helvetica Neue',Arial,sans-serif" font-size="11" class="mut">PE View</text>
<rect x="42" y="379" width="11" height="11" rx="2" fill="none" stroke="rgba(0,0,0,0.22)" stroke-width="1"/>
<text x="62" y="390" font-family="'Archivo','Helvetica Neue',Arial,sans-serif" font-size="11" class="mut">Board View</text>
<rect x="42" y="406" width="11" height="11" rx="2" fill="none" stroke="rgba(0,0,0,0.22)" stroke-width="1"/>
<text x="62" y="417" font-family="'Archivo','Helvetica Neue',Arial,sans-serif" font-size="11" class="mut">RevOps View</text>
<text x="42" y="452" font-family="'JetBrains Mono','Courier New',monospace" font-size="9" letter-spacing="1.2" class="dim">REVENUE</text>
<text x="234" y="452" font-family="'JetBrains Mono','Courier New',monospace" font-size="8" class="dim">▾</text>
<rect x="42" y="467" width="11" height="11" rx="2" fill="none" stroke="rgba(0,0,0,0.22)" stroke-width="1"/>
<text x="62" y="478" font-family="'Archivo','Helvetica Neue',Arial,sans-serif" font-size="11" class="mut">Target Tracker</text>
<rect x="42" y="494" width="11" height="11" rx="2" fill="none" stroke="rgba(0,0,0,0.22)" stroke-width="1"/>
<text x="62" y="505" font-family="'Archivo','Helvetica Neue',Arial,sans-serif" font-size="11" class="mut">Glidescope</text>
<rect x="42" y="521" width="11" height="11" rx="2" fill="none" stroke="rgba(0,0,0,0.22)" stroke-width="1"/>
<text x="62" y="532" font-family="'Archivo','Helvetica Neue',Arial,sans-serif" font-size="11" class="mut">QBR Metrics</text>
<rect x="42" y="548" width="11" height="11" rx="2" fill="none" stroke="rgba(0,0,0,0.22)" stroke-width="1"/>
<text x="62" y="559" font-family="'Archivo','Helvetica Neue',Arial,sans-serif" font-size="11" class="mut">Weekly Tracker</text>
<text x="42" y="596" font-family="'JetBrains Mono','Courier New',monospace" font-size="9" letter-spacing="1.2" class="dim">PIPELINE</text>
<text x="234" y="596" font-family="'JetBrains Mono','Courier New',monospace" font-size="8" class="dim">▸</text>
<text x="42" y="624" font-family="'JetBrains Mono','Courier New',monospace" font-size="9" letter-spacing="1.2" class="dim">GTM ECONOMICS</text>
<text x="234" y="624" font-family="'JetBrains Mono','Courier New',monospace" font-size="8" class="dim">▸</text>
<text x="42" y="652" font-family="'JetBrains Mono','Courier New',monospace" font-size="9" letter-spacing="1.2" class="dim">FINANCE</text>
<text x="234" y="652" font-family="'JetBrains Mono','Courier New',monospace" font-size="8" class="dim">▸</text>
<text x="42" y="680" font-family="'JetBrains Mono','Courier New',monospace" font-size="9" letter-spacing="1.2" class="dim">SYSTEM</text>
<text x="234" y="680" font-family="'JetBrains Mono','Courier New',monospace" font-size="8" class="dim">▸</text>
<circle cx="294" cy="86" r="13" fill="none" stroke="#5B3DF0" stroke-width="2"/>
<path d="M294 86 L294 79 M294 86 L300 86" stroke="#5B3DF0" stroke-width="2" stroke-linecap="round"/>
<text x="318" y="84" font-family="'Archivo','Helvetica Neue',Arial,sans-serif" font-size="24" font-weight="800" class="ink">Command Center</text>
<text x="318" y="104" font-family="'JetBrains Mono','Courier New',monospace" font-size="11" class="mut">Every metric derived from your model inputs</text>
<circle cx="972" cy="82" r="11" fill="none" stroke="rgba(0,0,0,0.25)"/>
<text x="972" y="86" font-family="'Archivo','Helvetica Neue',Arial,sans-serif" font-size="11" text-anchor="middle" class="mut">i</text>
<rect x="282" y="124" width="702" height="66" rx="4" fill="#E4E0D6" stroke="rgba(242,178,60,0.4)" stroke-width="1"/>
<rect x="282" y="124" width="3" height="66" rx="0" fill="#F2B23C"/>
<text x="298" y="146" font-family="'JetBrains Mono','Courier New',monospace" font-size="10" font-weight="700" letter-spacing="0.5" class="a">DIRECTIONAL · NOT FORECAST</text>
<text x="298" y="168" font-family="'JetBrains Mono','Courier New',monospace" font-size="12" font-weight="700" class="ink">27/28 hard-to-measure inputs still at defaults</text>
<text x="612" y="140" font-family="'JetBrains Mono','Courier New',monospace" font-size="8.5" class="mut">These are inputs most teams either don't track or measure</text>
<text x="612" y="153" font-family="'JetBrains Mono','Courier New',monospace" font-size="8.5" class="mut">inconsistently — funnel conversion, velocity by stage, motion</text>
<text x="612" y="166" font-family="'JetBrains Mono','Courier New',monospace" font-size="8.5" class="mut">economics, expansion-as-funnel. Your output is directional. Open Global</text>
<text x="612" y="179" font-family="'JetBrains Mono','Courier New',monospace" font-size="8.5" class="mut">Drivers to override the ones you can.</text>
<text x="972" y="140" font-family="'JetBrains Mono','Courier New',monospace" font-size="8.5" text-anchor="end" class="faint">▸ SHOW LIST</text>
<rect x="282.0" y="206" width="166.5" height="84" rx="4" fill="#ECECE7" stroke="rgba(0,0,0,0.08)" stroke-width="1"/>
<rect x="282.0" y="206" width="166.5" height="2.5" rx="0" fill="#5B3DF0"/>
<text x="296.0" y="228" font-family="'JetBrains Mono','Courier New',monospace" font-size="8.5" letter-spacing="0.6" class="faint">TARGET ARR</text>
<text x="296.0" y="260" font-family="'Archivo','Helvetica Neue',Arial,sans-serif" font-size="24" font-weight="800" class="ink">$20.0M</text>
<rect x="460.5" y="206" width="166.5" height="84" rx="4" fill="#ECECE7" stroke="rgba(0,0,0,0.08)" stroke-width="1"/>
<rect x="460.5" y="206" width="166.5" height="2.5" rx="0" fill="#2E9E4F"/>
<text x="474.5" y="228" font-family="'JetBrains Mono','Courier New',monospace" font-size="8.5" letter-spacing="0.6" class="faint">STARTING ARR</text>
<text x="474.5" y="260" font-family="'Archivo','Helvetica Neue',Arial,sans-serif" font-size="24" font-weight="800" class="ink">$5.0M</text>
<text x="474.5" y="280" font-family="'JetBrains Mono','Courier New',monospace" font-size="9" class="mut">NRR retained: $5.5M</text>
<rect x="639.0" y="206" width="166.5" height="84" rx="4" fill="#ECECE7" stroke="rgba(0,0,0,0.08)" stroke-width="1"/>
<rect x="639.0" y="206" width="166.5" height="2.5" rx="0" fill="#F2B23C"/>
<text x="653.0" y="228" font-family="'JetBrains Mono','Courier New',monospace" font-size="8.5" letter-spacing="0.6" class="faint">NEW ARR GAP</text>
<text x="653.0" y="260" font-family="'Archivo','Helvetica Neue',Arial,sans-serif" font-size="24" font-weight="800" class="ink">$14.6M</text>
<text x="653.0" y="280" font-family="'JetBrains Mono','Courier New',monospace" font-size="9" class="mut">146 deals</text>
<rect x="817.5" y="206" width="166.5" height="84" rx="4" fill="#ECECE7" stroke="rgba(0,0,0,0.08)" stroke-width="1"/>
<rect x="817.5" y="206" width="166.5" height="2.5" rx="0" fill="#5B3DF0"/>
<text x="831.5" y="228" font-family="'JetBrains Mono','Courier New',monospace" font-size="8.5" letter-spacing="0.6" class="faint">PROJECTED REVENUE</text>
<text x="831.5" y="260" font-family="'Archivo','Helvetica Neue',Arial,sans-serif" font-size="24" font-weight="800" class="ink">$9.2M</text>
<text x="831.5" y="280" font-family="'JetBrains Mono','Courier New',monospace" font-size="9" class="mut">Op margin: 2.1%</text>
<rect x="282.0" y="302" width="166.5" height="84" rx="4" fill="#ECECE7" stroke="rgba(0,0,0,0.08)" stroke-width="1"/>
<rect x="282.0" y="302" width="166.5" height="2.5" rx="0" fill="#5B3DF0"/>
<text x="296.0" y="324" font-family="'JetBrains Mono','Courier New',monospace" font-size="8.5" letter-spacing="0.6" class="faint">LTV:CAC</text>
<text x="296.0" y="356" font-family="'Archivo','Helvetica Neue',Arial,sans-serif" font-size="24" font-weight="800" class="ink">656.6x</text>
<rect x="460.5" y="302" width="166.5" height="84" rx="4" fill="#ECECE7" stroke="rgba(0,0,0,0.08)" stroke-width="1"/>
<rect x="460.5" y="302" width="166.5" height="2.5" rx="0" fill="#2E9E4F"/>
<text x="474.5" y="324" font-family="'JetBrains Mono','Courier New',monospace" font-size="8.5" letter-spacing="0.6" class="faint">CAC PAYBACK</text>
<text x="474.5" y="356" font-family="'Archivo','Helvetica Neue',Arial,sans-serif" font-size="24" font-weight="800" class="ink">0.2 mo</text>
<rect x="639.0" y="302" width="166.5" height="84" rx="4" fill="#ECECE7" stroke="rgba(0,0,0,0.08)" stroke-width="1"/>
<rect x="639.0" y="302" width="166.5" height="2.5" rx="0" fill="#2E9E4F"/>
<text x="653.0" y="324" font-family="'JetBrains Mono','Courier New',monospace" font-size="8.5" letter-spacing="0.6" class="faint">MAGIC NUMBER</text>
<text x="653.0" y="356" font-family="'Archivo','Helvetica Neue',Arial,sans-serif" font-size="24" font-weight="800" class="ink">3.46</text>
<rect x="817.5" y="302" width="166.5" height="84" rx="4" fill="#ECECE7" stroke="rgba(0,0,0,0.08)" stroke-width="1"/>
<rect x="817.5" y="302" width="166.5" height="2.5" rx="0" fill="#5B3DF0"/>
<text x="831.5" y="324" font-family="'JetBrains Mono','Courier New',monospace" font-size="8.5" letter-spacing="0.6" class="faint">RULE OF 40</text>
<text x="831.5" y="356" font-family="'Archivo','Helvetica Neue',Arial,sans-serif" font-size="24" font-weight="800" class="ink">302</text>
<rect x="282" y="398" width="166.5" height="84" rx="4" fill="#ECECE7" stroke="rgba(0,0,0,0.08)" stroke-width="1"/>
<rect x="282" y="398" width="166.5" height="2.5" rx="0" fill="#5B3DF0"/>
<text x="296" y="420" font-family="'JetBrains Mono','Courier New',monospace" font-size="8.5" letter-spacing="0.6" class="faint">FUNNEL GRADE</text>
<text x="296" y="452" font-family="'Archivo','Helvetica Neue',Arial,sans-serif" font-size="24" font-weight="800" class="ink">C</text>
<text x="296" y="472" font-family="'JetBrains Mono','Courier New',monospace" font-size="9" class="mut">5/10</text>
<rect x="460.5" y="398" width="166.5" height="84" rx="4" fill="#ECECE7" stroke="rgba(0,0,0,0.08)" stroke-width="1"/>
<rect x="460.5" y="398" width="166.5" height="2.5" rx="0" fill="#2E8FB5"/>
<text x="474.5" y="420" font-family="'JetBrains Mono','Courier New',monospace" font-size="8.5" letter-spacing="0.6" class="faint">FUNNEL YIELD</text>
<text x="474.5" y="452" font-family="'Archivo','Helvetica Neue',Arial,sans-serif" font-size="24" font-weight="800" class="ink">1.35%</text>
<text x="474.5" y="472" font-family="'JetBrains Mono','Courier New',monospace" font-size="9" class="mut">74 inq/deal</text>
<rect x="282" y="500" width="702" height="150" rx="5" fill="#E0E0DA" stroke="rgba(0,0,0,0.08)" stroke-width="1"/>
<text x="300" y="528" font-family="'Archivo','Helvetica Neue',Arial,sans-serif" font-size="15" font-weight="700" class="ink">Funnel Health</text>
<rect x="918" y="512" width="52" height="20" rx="3" fill="#F2B23C"/>
<text x="944" y="526" font-family="'JetBrains Mono','Courier New',monospace" font-size="9" font-weight="700" text-anchor="middle" letter-spacing="0.5" fill="#111111">GRADE C</text>
<text x="368.2" y="562" font-family="'JetBrains Mono','Courier New',monospace" font-size="8" text-anchor="middle" letter-spacing="0.3" class="faint">INQUIRY→MQL</text>
<text x="368.2" y="598" font-family="'Archivo','Helvetica Neue',Arial,sans-serif" font-size="26" font-weight="800" text-anchor="middle" class="v">30%</text>
<rect x="342.2" y="612" width="52" height="18" rx="3" fill="rgba(46,158,79,0.18)"/>
<text x="368.2" y="625" font-family="'JetBrains Mono','Courier New',monospace" font-size="8.5" font-weight="700" text-anchor="middle" letter-spacing="0.5" class="g">GOOD</text>
<text x="500.59999999999997" y="562" font-family="'JetBrains Mono','Courier New',monospace" font-size="8" text-anchor="middle" letter-spacing="0.3" class="faint">MQL→SQL</text>
<text x="500.59999999999997" y="598" font-family="'Archivo','Helvetica Neue',Arial,sans-serif" font-size="26" font-weight="800" text-anchor="middle" class="v">40%</text>
<rect x="474.59999999999997" y="612" width="52" height="18" rx="3" fill="rgba(46,158,79,0.18)"/>
<text x="500.59999999999997" y="625" font-family="'JetBrains Mono','Courier New',monospace" font-size="8.5" font-weight="700" text-anchor="middle" letter-spacing="0.5" class="g">GOOD</text>
<text x="633.0" y="562" font-family="'JetBrains Mono','Courier New',monospace" font-size="8" text-anchor="middle" letter-spacing="0.3" class="faint">SQL→MEETING (HELD)</text>
<text x="633.0" y="598" font-family="'Archivo','Helvetica Neue',Arial,sans-serif" font-size="26" font-weight="800" text-anchor="middle" class="v">75%</text>
<rect x="607.0" y="612" width="52" height="18" rx="3" fill="rgba(46,158,79,0.18)"/>
<text x="633.0" y="625" font-family="'JetBrains Mono','Courier New',monospace" font-size="8.5" font-weight="700" text-anchor="middle" letter-spacing="0.5" class="g">GOOD</text>
<text x="765.4000000000001" y="562" font-family="'JetBrains Mono','Courier New',monospace" font-size="8" text-anchor="middle" letter-spacing="0.3" class="faint">MEETING→SQO</text>
<text x="765.4000000000001" y="598" font-family="'Archivo','Helvetica Neue',Arial,sans-serif" font-size="26" font-weight="800" text-anchor="middle" class="v">50%</text>
<rect x="739.4000000000001" y="612" width="52" height="18" rx="3" fill="rgba(46,158,79,0.18)"/>
<text x="765.4000000000001" y="625" font-family="'JetBrains Mono','Courier New',monospace" font-size="8.5" font-weight="700" text-anchor="middle" letter-spacing="0.5" class="g">GOOD</text>
<text x="897.8000000000001" y="562" font-family="'JetBrains Mono','Courier New',monospace" font-size="8" text-anchor="middle" letter-spacing="0.3" class="faint">SQO→WON</text>
<text x="897.8000000000001" y="598" font-family="'Archivo','Helvetica Neue',Arial,sans-serif" font-size="26" font-weight="800" text-anchor="middle" class="v">30%</text>
<rect x="871.8000000000001" y="612" width="52" height="18" rx="3" fill="rgba(46,158,79,0.18)"/>
<text x="897.8000000000001" y="625" font-family="'JetBrains Mono','Courier New',monospace" font-size="8.5" font-weight="700" text-anchor="middle" letter-spacing="0.5" class="g">GOOD</text>
<rect x="1024" y="66" width="68" height="22" rx="3" fill="rgba(91,61,240,0.16)" stroke="#5B3DF0" stroke-width="1"/>
<text x="1058" y="81" font-family="'JetBrains Mono','Courier New',monospace" font-size="9" font-weight="700" text-anchor="middle" letter-spacing="0.5" class="v">BLENDED</text>
<text x="1102" y="81" font-family="'JetBrains Mono','Courier New',monospace" font-size="9" class="faint">LOGO + EXPAND</text>
<text x="1024" y="114" font-family="'JetBrains Mono','Courier New',monospace" font-size="9" letter-spacing="1.2" class="dim">LIFECYCLE</text>
<text x="1024" y="132" font-family="'JetBrains Mono','Courier New',monospace" font-size="9" letter-spacing="0.5" class="faint">INQUIRY→MQL</text>
<rect x="1024" y="146" width="282" height="25" rx="3" fill="#ECECE7" stroke="rgba(0,0,0,0.12)" stroke-width="1"/>
<text x="1036" y="163" font-family="'Archivo','Helvetica Neue',Arial,sans-serif" font-size="11" class="ink">30</text>
<line x1="1280" y1="146" x2="1280" y2="171" stroke="rgba(0,0,0,0.12)" stroke-width="1"/>
<path d="M1290 155 l4 -4 l4 4 M1290 162 l4 4 l4 -4" fill="none" stroke="#8E8A80" stroke-width="1.2"/>
<text x="1024" y="180" font-family="'JetBrains Mono','Courier New',monospace" font-size="9" letter-spacing="0.5" class="faint">MQL→SQL</text>
<rect x="1024" y="194" width="282" height="25" rx="3" fill="#ECECE7" stroke="rgba(0,0,0,0.12)" stroke-width="1"/>
<text x="1036" y="211" font-family="'Archivo','Helvetica Neue',Arial,sans-serif" font-size="11" class="ink">40</text>
<line x1="1280" y1="194" x2="1280" y2="219" stroke="rgba(0,0,0,0.12)" stroke-width="1"/>
<path d="M1290 203 l4 -4 l4 4 M1290 210 l4 4 l4 -4" fill="none" stroke="#8E8A80" stroke-width="1.2"/>
<text x="1024" y="228" font-family="'JetBrains Mono','Courier New',monospace" font-size="9" letter-spacing="0.5" class="faint">SQL→MEETING</text>
<rect x="1024" y="242" width="282" height="25" rx="3" fill="#ECECE7" stroke="rgba(0,0,0,0.12)" stroke-width="1"/>
<text x="1036" y="259" font-family="'Archivo','Helvetica Neue',Arial,sans-serif" font-size="11" class="ink">75</text>
<line x1="1280" y1="242" x2="1280" y2="267" stroke="rgba(0,0,0,0.12)" stroke-width="1"/>
<path d="M1290 251 l4 -4 l4 4 M1290 258 l4 4 l4 -4" fill="none" stroke="#8E8A80" stroke-width="1.2"/>
<text x="1024" y="276" font-family="'JetBrains Mono','Courier New',monospace" font-size="9" letter-spacing="0.5" class="faint">MEETING→SQO</text>
<rect x="1024" y="290" width="282" height="25" rx="3" fill="#ECECE7" stroke="rgba(0,0,0,0.12)" stroke-width="1"/>
<text x="1036" y="307" font-family="'Archivo','Helvetica Neue',Arial,sans-serif" font-size="11" class="ink">50</text>
<line x1="1280" y1="290" x2="1280" y2="315" stroke="rgba(0,0,0,0.12)" stroke-width="1"/>
<path d="M1290 299 l4 -4 l4 4 M1290 306 l4 4 l4 -4" fill="none" stroke="#8E8A80" stroke-width="1.2"/>
<text x="1024" y="324" font-family="'JetBrains Mono','Courier New',monospace" font-size="9" letter-spacing="0.5" class="faint">SQO→WON</text>
<rect x="1024" y="338" width="282" height="25" rx="3" fill="#ECECE7" stroke="rgba(0,0,0,0.12)" stroke-width="1"/>
<text x="1036" y="355" font-family="'Archivo','Helvetica Neue',Arial,sans-serif" font-size="11" class="ink">30</text>
<line x1="1280" y1="338" x2="1280" y2="363" stroke="rgba(0,0,0,0.12)" stroke-width="1"/>
<path d="M1290 347 l4 -4 l4 4 M1290 354 l4 4 l4 -4" fill="none" stroke="#8E8A80" stroke-width="1.2"/>
<text x="1024" y="378" font-family="'JetBrains Mono','Courier New',monospace" font-size="9" letter-spacing="1.2" class="dim">PIPELINE LEAD TIME</text>
<text x="1024" y="396" font-family="'JetBrains Mono','Courier New',monospace" font-size="9" letter-spacing="0.5" class="faint">SQO→CLOSE LAG</text>
<rect x="1024" y="410" width="282" height="25" rx="3" fill="#ECECE7" stroke="rgba(0,0,0,0.12)" stroke-width="1"/>
<text x="1036" y="427" font-family="'Archivo','Helvetica Neue',Arial,sans-serif" font-size="11" class="ink">2</text>
<line x1="1280" y1="410" x2="1280" y2="435" stroke="rgba(0,0,0,0.12)" stroke-width="1"/>
<path d="M1290 419 l4 -4 l4 4 M1290 426 l4 4 l4 -4" fill="none" stroke="#8E8A80" stroke-width="1.2"/>
<text x="1024" y="444" font-family="'JetBrains Mono','Courier New',monospace" font-size="9" letter-spacing="0.5" class="faint">MQL→SQO LAG</text>
<rect x="1024" y="458" width="282" height="25" rx="3" fill="#ECECE7" stroke="rgba(0,0,0,0.12)" stroke-width="1"/>
<text x="1036" y="475" font-family="'Archivo','Helvetica Neue',Arial,sans-serif" font-size="11" class="ink">1</text>
<line x1="1280" y1="458" x2="1280" y2="483" stroke="rgba(0,0,0,0.12)" stroke-width="1"/>
<path d="M1290 467 l4 -4 l4 4 M1290 474 l4 4 l4 -4" fill="none" stroke="#8E8A80" stroke-width="1.2"/>
<text x="1024" y="498" font-family="'JetBrains Mono','Courier New',monospace" font-size="9" letter-spacing="1.2" class="dim">SALES</text>
<text x="1024" y="516" font-family="'JetBrains Mono','Courier New',monospace" font-size="9" letter-spacing="0.5" class="faint">AES TODAY</text>
<rect x="1024" y="530" width="282" height="25" rx="3" fill="#ECECE7" stroke="rgba(0,0,0,0.12)" stroke-width="1"/>
<text x="1036" y="547" font-family="'Archivo','Helvetica Neue',Arial,sans-serif" font-size="11" class="ink">6</text>
<line x1="1280" y1="530" x2="1280" y2="555" stroke="rgba(0,0,0,0.12)" stroke-width="1"/>
<path d="M1290 539 l4 -4 l4 4 M1290 546 l4 4 l4 -4" fill="none" stroke="#8E8A80" stroke-width="1.2"/>
<text x="1024" y="564" font-family="'JetBrains Mono','Courier New',monospace" font-size="9" letter-spacing="0.5" class="faint">AES (TARGET)</text>
<rect x="1024" y="578" width="282" height="25" rx="3" fill="#ECECE7" stroke="rgba(0,0,0,0.12)" stroke-width="1"/>
<text x="1036" y="595" font-family="'Archivo','Helvetica Neue',Arial,sans-serif" font-size="11" class="ink">14</text>
<line x1="1280" y1="578" x2="1280" y2="603" stroke="rgba(0,0,0,0.12)" stroke-width="1"/>
<path d="M1290 587 l4 -4 l4 4 M1290 594 l4 4 l4 -4" fill="none" stroke="#8E8A80" stroke-width="1.2"/>
<text x="1024" y="612" font-family="'JetBrains Mono','Courier New',monospace" font-size="9" letter-spacing="0.5" class="faint">QUOTA</text>
<rect x="1024" y="626" width="282" height="25" rx="3" fill="#ECECE7" stroke="rgba(0,0,0,0.12)" stroke-width="1"/>
<text x="1036" y="643" font-family="'Archivo','Helvetica Neue',Arial,sans-serif" font-size="11" class="ink">$ 1250000</text>
<line x1="1280" y1="626" x2="1280" y2="651" stroke="rgba(0,0,0,0.12)" stroke-width="1"/>
<path d="M1290 635 l4 -4 l4 4 M1290 642 l4 4 l4 -4" fill="none" stroke="#8E8A80" stroke-width="1.2"/>
<text x="1024" y="664" font-family="'JetBrains Mono','Courier New',monospace" font-size="9" letter-spacing="1" class="dim">▾ CYBER BENCHMARKS</text>
<text x="1024" y="686" font-family="'JetBrains Mono','Courier New',monospace" font-size="8" class="faint">SEG</text>
<text x="1094" y="686" font-family="'JetBrains Mono','Courier New',monospace" font-size="8" class="faint">RANGE</text>
<text x="1174" y="686" font-family="'JetBrains Mono','Courier New',monospace" font-size="8" class="faint">ACTUAL</text>
</svg>