<svg xmlns="http://www.w3.org/2000/svg" width="957" height="233" fill="none" viewBox="0 0 957 233">
  <path fill="#000" d="m44.466 156.074 4.089 2.793v3.375H26.752h17.305-26.034v-3.375l4.885-2.793V66.019l-4.885-2.793v-3.375h26.443v96.223Zm69.382 6.168H93.621v-3.375l3.566-2.793V97.697c0-11.252-1.844-19.451-5.531-24.598-3.686-5.15-9.76-6.946-18.222-5.392-5.544 1.07-10.765 3.703-15.662 7.902-4.894 4.198-9.25 9.317-13.068 15.357-3.815 6.037-7.066 12.54-9.753 19.508V98.8c5.318-11.066 11.544-20.232 18.68-27.5 7.138-7.27 15.308-11.387 24.511-12.354 9.752-1.158 17.67-.233 23.756 2.774 6.087 3.006 10.504 7.584 13.25 13.734 2.747 6.15 4.12 13.563 4.12 22.243v58.377l3.829 2.793v3.375H102.08h11.768Zm17.894-51.352c0-10.684 2.3-20.06 6.899-28.13 4.6-8.073 10.93-14.303 18.99-18.69 8.062-4.39 17.096-6.584 27.101-6.584 17.29 0 30.435 5.09 39.434 15.271 8.998 10.18 13.26 24.231 12.783 42.152h-21.336c0-14.256-1.637-25.09-4.912-32.504-3.274-7.415-7.248-12.771-11.919-16.068-4.67-3.3-9.336-4.87-13.997-4.712-4.723.158-9.398 1.68-14.024 4.567-4.627 2.884-8.636 7.84-12.028 14.864-3.393 7.026-5.107 16.97-5.142 29.834-.035 8.68 1.56 15.885 4.786 21.614 3.227 5.728 7.345 10.238 12.353 13.528 5.008 3.291 10.212 5.315 15.612 6.073 5.181.583 10.628.545 16.34-.114 5.711-.659 11.074-2.24 16.089-4.742 5.014-2.505 8.916-6.142 11.706-10.911l2.98 1.919c-4.358 8.199-10.717 14.617-19.079 19.252-8.359 4.636-17.949 7.002-28.77 7.099-11.126.096-20.759-2.026-28.9-6.366-8.14-4.34-14.337-10.562-18.59-18.667-4.25-8.105-6.376-17.667-6.376-28.685Zm102.83-6.655v10.674h-89.031v-2.981l89.031-7.693Zm3.655-44.385c3.895-3.052 7.26-6.889 10.093-11.51a61.316 61.316 0 0 0 6.574-14.865c1.55-5.286 2.307-10.452 2.272-15.498h17.219c-.51 10.8-4.027 20.956-10.552 30.467-.551.715-1.273 1.443-2.166 2.184-2.662 2.74-5.477 4.9-8.444 6.476-2.967 1.577-6.228 2.965-9.781 4.166l.145.749 2.808-.342c14.399-1.183 24.15-1.791 29.253-1.826h18.073v13.374h-19.862v50.348c0 9.789 2.441 16.316 7.323 19.583 4.884 3.264 10.547 4.67 16.987 4.218l4.853 13.956c-11.634 1.741-20.888.748-27.761-2.98-6.874-3.731-11.608-8.523-14.204-14.378-2.594-5.855-3.891-12.139-3.891-18.853V73.225h-18.939V59.85Zm167.492 102.392h-20.228v-3.375l3.566-2.793V97.697c0-11.156-1.844-19.307-5.531-24.454-3.685-5.149-9.759-6.994-18.222-5.537-5.544.974-10.765 3.56-15.661 7.757-4.895 4.199-9.251 9.341-13.068 15.428-3.816 6.087-7.067 12.615-9.754 19.583V98.799c5.318-11.162 11.545-20.376 18.68-27.644 7.138-7.27 15.308-11.34 24.511-12.21 9.752-.965 17.671.032 23.756 2.99 6.087 2.959 10.504 7.489 13.251 13.59 2.746 6.101 4.119 13.492 4.119 22.172v58.377l3.566 2.793v3.375h-20.227 11.242Zm-66.529-6.168 3.566 2.793v3.375h-20.231 11.771-20.23v-3.375l3.566-2.793V24.144l-4.089-2.792v-3.375h25.647v138.097Zm83.787-45.184c0-10.684 2.299-20.06 6.899-28.13 4.599-8.073 10.929-14.303 18.989-18.69 8.062-4.39 17.096-6.584 27.102-6.584 17.29 0 30.434 5.09 39.433 15.271 8.999 10.18 13.26 24.231 12.783 42.152h-21.335c0-14.256-1.638-25.09-4.912-32.504-3.275-7.415-7.248-12.771-11.92-16.068-4.67-3.3-9.335-4.87-13.997-4.712-4.723.158-9.398 1.68-14.024 4.567-4.626 2.884-8.636 7.84-12.028 14.864-3.392 7.026-5.106 16.97-5.141 29.834-.035 8.68 1.56 15.885 4.785 21.614 3.227 5.728 7.345 10.238 12.353 13.528 5.008 3.291 10.212 5.315 15.612 6.073 5.182.583 10.628.545 16.34-.114s11.075-2.24 16.089-4.742c5.014-2.505 8.916-6.142 11.706-10.911l2.981 1.919c-4.358 8.199-10.718 14.617-19.079 19.252-8.359 4.636-17.949 7.002-28.77 7.099-11.127.096-20.76-2.026-28.9-6.366-8.141-4.34-14.337-10.562-18.59-18.667-4.251-8.105-6.376-17.667-6.376-28.685Zm102.829-6.655v10.674h-89.031v-2.981l89.031-7.693Zm38.368 51.84 4.089 2.793v3.375h-21.8 17.302-26.031v-3.375l4.882-2.793V66.02l-4.882-2.793v-3.375h26.44v96.223Zm-1.901-70.7c1.814-6.453 5.205-12.11 10.174-16.968 4.971-4.862 10.955-8.078 17.953-9.648 6.997-1.57 14.279-.878 21.846 2.078L609.63 84.71h-4.16c-3.355-6.7-8.125-10.837-14.309-12.41-6.184-1.575-11.954-.695-17.308 2.64-5.353 3.331-8.597 8.286-9.732 14.864l-1.848-4.429Zm105.84 79.232c-11.52 0-21.431-2.342-29.732-7.027-8.3-4.687-14.58-11.074-18.841-19.16-4.261-8.089-6.392-17.196-6.392-27.321 0-9.903 2.386-18.932 7.157-27.087 4.772-8.154 11.342-14.589 19.707-19.305 8.367-4.717 17.734-7.076 28.101-7.076 11.075 0 20.769 2.23 29.083 6.692 8.314 4.459 14.738 10.756 19.271 18.892 4.534 8.136 6.8 17.43 6.8 27.884 0 9.932-2.367 18.966-7.1 27.102-4.734 8.136-11.282 14.571-19.646 19.305-8.361 4.734-17.83 7.101-28.408 7.101Zm3.678-4.388c6.436-.517 11.94-2.898 16.513-7.141 4.574-4.244 7.94-10.129 10.096-17.658 2.159-7.53 2.877-16.541 2.154-27.034-.722-10.257-2.717-18.942-5.986-26.058-3.268-7.116-7.524-12.435-12.767-15.958-5.244-3.523-11.066-5.025-17.467-4.508-6.304.42-11.751 2.813-16.343 7.175-4.591 4.36-7.941 10.323-10.05 17.888-2.109 7.564-2.802 16.508-2.08 26.835.625 10.396 2.557 19.126 5.794 26.19 3.238 7.062 7.461 12.345 12.669 15.847 5.208 3.5 11.031 4.974 17.467 4.422Zm87.658 48.673 4.562 2.793v3.375h-23.322 15.962-23.323v-3.375l4.562-2.793V66.019l-4.299-2.793V59.85h25.858v149.041Zm33.639-44.858c-8.828-.488-16.606-3.005-23.335-7.551-6.727-4.547-11.936-10.686-15.628-18.418-3.692-7.733-5.537-16.722-5.537-26.966 0-9.939 1.906-18.835 5.72-26.69 3.815-7.854 9.119-14.046 15.912-18.575 6.793-4.529 14.416-7.037 22.868-7.526 9.851-.973 19.072.794 27.665 5.303 8.594 4.508 15.46 10.995 20.598 19.462 5.141 8.466 7.711 17.808 7.711 28.026 0 10.139-2.553 19.417-7.658 27.832-5.103 8.415-11.952 14.911-20.546 19.489-8.592 4.576-17.849 6.448-27.77 5.614Zm.052-4.373c6.298.105 12.013-1.725 17.145-5.49 5.134-3.767 9.2-9.343 12.198-16.728 2.998-7.384 4.497-16.166 4.497-26.344 0-9.908-1.499-18.513-4.497-25.815-2.998-7.303-7.073-12.845-12.223-16.626-5.151-3.784-10.857-5.642-17.12-5.574-6.225.07-11.87 1.988-16.934 5.756-5.061 3.765-9.05 9.264-11.966 16.496-2.916 7.233-4.373 15.82-4.373 25.763-.097 10.082 1.327 18.772 4.274 26.07 2.947 7.298 6.951 12.847 12.013 16.645 5.063 3.795 10.726 5.745 16.986 5.847Zm125.475-73.498c-.752-6.584-3.119-12.123-7.104-16.617-3.985-4.496-8.9-6.792-14.746-6.889-4.995-.096-9.218.718-12.668 2.442-3.448 1.723-5.928 3.968-7.438 6.735-1.511 2.767-2.037 5.65-1.579 8.647.493 3.174 2.069 5.861 4.727 8.062 2.659 2.2 6.704 4.48 12.133 6.836a52.338 52.338 0 0 0 5.407 2.38 120.56 120.56 0 0 1 5.949 2.431c12.301 5.035 21.297 10.102 26.991 15.2 5.693 5.097 8.562 11.711 8.607 19.84.021 6.365-1.669 11.74-5.07 16.127-3.398 4.386-7.996 7.666-13.792 9.842-5.796 2.176-12.13 3.264-19.001 3.264-10.085 0-19.431-2.377-28.04-7.131-8.609-4.757-14.067-13.651-16.374-26.681l18.2-2.63 1.65 1.337c1.921 10.636 5.296 18.44 10.124 23.41 4.829 4.968 10.355 7.417 16.578 7.347 4.994-.035 9.209-.925 12.644-2.67 3.436-1.745 5.918-4.112 7.447-7.101s1.898-6.218 1.105-9.688c-.563-2.531-1.793-4.71-3.689-6.537-1.896-1.829-4.712-3.66-8.447-5.491-2.129-1.078-4.57-2.206-7.32-3.384a2414.334 2414.334 0 0 0-8.428-3.594c-8.104-3.377-14.697-6.659-19.779-9.845-5.082-3.186-9.033-6.903-11.852-11.15-2.816-4.248-4.176-9.252-4.079-15.013.097-5.658 1.847-10.614 5.249-14.867 3.405-4.256 7.973-7.517 13.703-9.784 5.732-2.266 12.069-3.368 19.011-3.307 9.019.123 17.139 2.314 24.359 6.572 7.22 4.255 12.26 10.814 15.12 19.674l-17.847 3.218-1.751-.985Z"/>
</svg>
