<svg xmlns="http://www.w3.org/2000/svg" xmlns:xlink="http://www.w3.org/1999/xlink" xmlns:inkscape="http://www.inkscape.org/namespaces/inkscape" version="1.1"    viewBox="85.99999838644614 90.56 453.1999927188382 89.35999999999999">
<defs>
<g id="font_6_225">
<path transform="matrix(.001,0,0,-.001,0,0)" d="M73.78125-523.96878H169.26563L167.39063-445.78126C166.20313-437.59376 164.0625-429.14064 160.96875-420.42189 157.88542-411.71354 153.9948-401.58335 149.29688-390.03126 145.52605-381.78126 142.45313-374.23439 140.07813-367.39064L175.5-357.01564C176.16667-359.27604 177.79167-366.11979 180.375-377.54689 182.33333-389.49479 184.4948-400.59376 186.85938-410.84376 189.23438-421.10417 192.19792-430.47398 195.75-438.95314 212.5-469.77604 234.96875-493.54689 263.15626-510.26564 291.35417-526.9948 323.45314-535.3594 359.45314-535.3594 407.38023-535.3594 445.59376-526.8594 474.09376-509.85939 502.59376-492.86979 523.01046-468.3229 535.34378-436.21876 547.6875-404.1146 553.8594-363.56773 553.8594-314.57814V-45.234376H440.07814V-323.07814C440.07814-359.58854 429.34376-387.04689 407.875-405.45314 386.41667-423.85939 357.20835-433.0625 320.25-433.0625 291.66667-433.0625 267.3854-426.55729 247.40625-413.54689 227.42708-400.53648 212.45833-383.2604 202.5-361.71876 192.55208-340.1771 187.57813-316.08335 187.57813-289.4375V-45.234376H73.78125V-523.96878ZM187.57813-50.125V0H73.78125V-50.125H187.57813ZM553.8594-50.125V0H440.07814V-50.125H553.8594Z"/>
</g>
<g id="font_6_172">
<path transform="matrix(.001,0,0,-.001,0,0)" d="M40.09375-261.59376C40.09375-315.91667 51.83854-363.79167 75.328128-405.21876 98.828128-446.65626 131.5677-478.81773 173.54688-501.70314 215.53647-524.58859 263.41148-536.03128 317.17189-536.03128 374.99479-536.03128 425.52604-523.1927 468.76564-497.51564 512.0052-471.83854 544.1302-436.3229 565.1406-390.96876 586.16146-345.625 593.9375-294.90104 588.46878-238.79688H149.71875C149.88542-205.93228 157.90625-177.71355 173.78125-154.14063 189.65625-130.5677 211.1302-112.583339 238.20313-100.1875 265.28648-87.791667 295.8125-81.86979 329.78126-82.421878 364.89585-82.97396 396.3646-91.921878 424.1875-109.265628 452.0104-126.6198 473.34898-148.11458 488.20314-173.75L576.3281-129.09375C554.21359-85.39583 521.0052-50.953126 476.70314-25.765625 432.40104-.58854106 380.9479 12 322.34376 12 266.9271 12 217.8646 .53125 175.15625-22.40625 132.4479-45.354169 99.26042-77.572917 75.59375-119.0625 51.927083-160.5521 40.09375-208.0625 40.09375-261.59376ZM474.54689-323.79689C472.63023-347.38023 464.07814-368.5625 448.89064-387.34376 433.71354-406.1354 414.36979-420.7604 390.85939-431.21876 367.34898-441.6771 341.96354-446.90626 314.70314-446.90626 285.78648-446.90626 259.40626-440.625 235.5625-428.0625 211.71875-415.5 192.8125-399.6875 178.84375-380.625 164.88542-361.5729 157.28125-342.63023 156.03125-323.79689H474.54689Z"/>
</g>
<g id="font_7_13">
<path transform="matrix(.001,0,0,-.001,0,0)" d="M26.921875-523.96878H344V-434.26564H26.921875V-523.96878ZM390.45314-7.703125C327.02604 5.234375 275.39064 2.572918 235.54688-15.6875 195.70313-33.947919 167.42188-59.49479 150.70313-92.328128 133.98438-125.171878 125.625-160.96875 125.625-199.71875V-523.96878H26.921875C47.984376-537.9792 65.99479-556.5052 80.953128-579.5469 95.921878-602.58859 107.27604-627.4792 115.015628-654.21878 122.75521-680.9583 126.291667-706.88546 125.625-732H243.29688C243.5573-704.0417 237.61458-676.03128 225.46875-647.96878 213.32292-619.9167 197.69792-594.9531 178.59375-573.0781 159.5-551.2031 140.40105-534.8333 121.296878-523.96878H239.40625V-212.64063C239.40625-167.17188 250.94792-136.5625 274.03126-120.8125 297.1146-105.072917 324.25523-98.885417 355.45314-102.25L390.45314-7.703125Z"/>
</g>
<g id="font_6_193">
<path transform="matrix(.001,0,0,-.001,0,0)" d="M73.78125-732H187.57813L183.29688-461.75C181.59896-448.72917 175.4427-429.89064 164.82813-405.23439 160.79688-396.20314 157.72396-388.52604 155.60938-382.20314L191.40625-371.82814C192.85417-376.55729 194.35417-383.6771 195.90625-393.1875 197.86458-405.65626 200.02605-416.94273 202.39063-427.04689 204.76563-437.16148 207.52605-446.58335 210.67188-455.3125 224.5677-482.40626 244.70313-502.52085 271.07814-515.65628 297.46354-528.7917 327.44273-535.3594 361.01564-535.3594 408.93229-535.3594 447.0104-526.6042 475.25-509.09376 503.5-491.58335 523.66146-466.57814 535.7344-434.07814 547.8177-401.58854 553.8594-360.45835 553.8594-310.6875V0H440.07814V-323.07814C440.07814-359.58854 429.34376-387.04689 407.875-405.45314 386.41667-423.85939 357.20835-433.0625 320.25-433.0625 277.1771-433.0625 244.29688-420.4271 221.60938-395.15626 198.92188-369.89585 187.57813-337.10417 187.57813-296.78126V0H73.78125V-732Z"/>
</g>
<g id="font_6_252">
<path transform="matrix(.001,0,0,-.001,0,0)" d="M73.78125-523.96878H169.65625L167.15625-447C165.3125-431.89585 159.0052-411.25523 148.23438-385.07814 143.9427-375.57814 141.07813-368.45835 139.64063-363.71876L175.04688-353.34376C176.3802-358.41667 178.41667-367.63023 181.15625-380.98439 186.1875-407.74479 191.79167-427.1979 197.96875-439.34376 216.05208-466.3854 240.15105-487.38023 270.26564-502.32814 300.39064-517.27609 334.58335-524.75 372.84376-524.75H398.54689V-424.17189H372.84376C339.3125-424.17189 308.41148-417.59376 280.14064-404.4375 251.8802-391.28126 229.38542-372.41148 212.65625-347.82814 195.9375-323.25523 187.57813-294.65104 187.57813-262.01564V0H73.78125V-523.96878Z"/>
</g>
<g id="font_6_234">
<path transform="matrix(.001,0,0,-.001,0,0)" d="M321.54689 12C267.22398 12 218.71875 .4375 176.03125-22.6875 133.35416-45.822919 99.9948-78.109378 75.953128-119.546878 51.921876-160.9948 39.90625-208.21875 39.90625-261.21876 39.90625-315.28126 51.921876-363.0625 75.953128-404.5625 99.9948-446.0625 133.2552-478.33854 175.73438-501.39064 218.21355-524.4427 266.81773-535.96878 321.54689-535.96878 376.28648-535.96878 425.0625-524.375 467.875-501.1875 510.6875-478.0104 544.1094-445.67189 568.1406-404.17189 592.1823-362.67189 604.2031-315.02085 604.2031-261.21876 604.2031-208.21875 592.1823-160.9948 568.1406-119.546878 544.1094-78.109378 510.58335-45.822919 467.5625-22.6875 424.5521 .4375 375.88023 12 321.54689 12ZM322.03126-87.03125C355.84376-87.03125 386.1354-94.614589 412.90626-109.78125 439.6875-124.958339 460.59376-145.82292 475.625-172.375 490.65626-198.92708 498.17189-228.79688 498.17189-261.98439 498.17189-296.21354 490.6771-326.6354 475.6875-353.25 460.6979-379.875 439.79167-400.47917 412.96876-415.0625 386.15626-429.64585 355.8125-436.9375 321.9375-436.9375 288.16667-436.9375 257.91148-429.64585 231.17188-415.0625 204.4323-400.47917 183.60417-379.8854 168.6875-353.28126 153.77083-326.6771 146.3125-296.27085 146.3125-262.0625 146.3125-228.80208 153.875-198.875 169-172.28125 184.125-145.69792 204.95313-124.84375 231.48438-109.71875 258.02604-94.59375 288.20835-87.03125 322.03126-87.03125Z"/>
</g>
<g id="font_6_248">
<path transform="matrix(.001,0,0,-.001,0,0)" d="M73.90625-523.96878H165.89063L164.01563-439.01564C162.42188-429.21354 160.14063-419.27604 157.17188-409.20314 154.21355-399.13023 150.3125-388.3021 145.46875-376.71876 141.4375-368.25 138.57292-361.25523 136.875-355.73439L172.67188-345.75C173.59896-350.8229 175.17188-359.57814 177.39063-372.01564 180.01563-385.41148 182.3802-396.90104 184.48438-406.48439 186.59896-416.07814 189.22917-424.78126 192.375-432.59376 209.3125-463.6771 234.09375-488.48439 266.71876-507.01564 299.34376-525.5469 335.63023-534.8125 375.57814-534.8125 428.86979-534.8125 476.40104-523.11459 518.1719-499.71876 559.9531-476.33335 592.53646-443.91667 615.9219-402.46876 639.3177-361.03126 651.0156-314.46354 651.0156-262.76564 651.0156-209.73438 640.16146-162.53125 618.4531-121.15625 596.7448-79.791667 566.01046-47.385419 526.25-23.9375 486.4896-.5 439.89064 11.21875 386.45314 11.21875 349.46354 11.21875 315.17189 3.270834 283.57814-12.625 251.98438-28.53125 227.46355-49.80729 210.01563-76.453128 205.82813-83.234378 202.09896-90.734378 198.82813-98.953128 195.5573-107.171878 191.90625-116.609378 187.875-127.265628 183.84375-137.77605 180.51042-145.7552 177.875-151.20313L145.96875-133.82813C148.47917-128.4948 153.3073-120.36979 160.45313-109.453128 166.84896-100.34896 172.0052-91.88021 175.92188-84.046878 179.84896-76.22396 183.125-68.53646 185.75-60.984376L187.6875 197.625H73.90625V-523.96878ZM368.20314-87.8125C401.70314-87.8125 431.8229-95.166667 458.5625-109.875 485.3125-124.59375 506.07814-145.1198 520.8594-171.45313 535.65109-197.78646 543.0469-227.96353 543.0469-261.98439 543.0469-295.45314 535.55209-325.35417 520.5625-351.6875 505.5729-378.02085 484.86979-398.68229 458.45314-413.67189 432.04689-428.67189 401.96354-436.17189 368.20314-436.17189 334.43229-436.17189 304.2396-428.67189 277.625-413.67189 251.02083-398.68229 230.21875-378.02085 215.21875-351.6875 200.22917-325.35417 192.73438-295.45314 192.73438-261.98439 192.73438-227.96353 200.22917-197.78646 215.21875-171.45313 230.21875-145.1198 251.08855-124.59375 277.82814-109.875 304.56773-95.166667 334.69273-87.8125 368.20314-87.8125Z"/>
</g>
<g id="font_8_1">
<path transform="matrix(.001,0,0,-.001,0,0)" d="M255.42188 13.015625C219.23438 12.140625 187.16146 6.369792 159.20313-4.296875 131.2448-14.963542 108.0625-30.177083 89.65625-49.9375 71.25-69.708339 58.276044-93.354167 50.734376-120.875L158.17188-156.26563C164.85938-130.39063 176.97396-110.75 194.51563-97.34375 212.0677-83.947917 233.6875-77.25 259.375-77.25 288.65626-77.25 310.84898-83.40625 325.95314-95.71875 341.06773-108.041667 348.625-125.16145 348.625-147.07813 348.625-162.0573 343.60417-174.6823 333.5625-184.95313 323.53126-195.23438 311.10417-203.61458 296.28126-210.09375 281.45835-216.58333 260.79167-224.17708 234.28125-232.875 198.95833-243.57292 169.97396-254.14583 147.32813-264.59376 124.68229-275.04167 105.36979-290.35939 89.390628-310.54689 73.41146-330.74479 65.421878-356.80729 65.421878-388.73439 65.421878-417.78648 73.90625-443.1875 90.875-464.9375 107.85417-486.6875 130.92708-503.33335 160.09375-514.875 189.27083-526.42709 221.49478-532.2031 256.76564-532.2031 289.16148-532.2031 318.33335-527.3177 344.28126-517.5469 370.22917-507.78648 392.01564-493.8646 409.64064-475.78126 427.26564-457.6979 439.51564-436.13023 446.39064-411.07814L347.85939-380.98439C344.25523-402.15104 334.08854-418.53126 317.35939-430.125 300.63023-441.71876 279.5521-447.51564 254.125-447.51564 237.14583-447.51564 222.22396-444.82814 209.35938-439.45314 196.5052-434.08854 186.55208-426.7604 179.5-417.46876 172.44792-408.1875 168.92188-397.5104 168.92188-385.4375 168.92188-372.02085 173.60417-360.67189 182.96875-351.39064 192.33333-342.11979 204.15105-334.40626 218.42188-328.25 232.70313-322.10417 252.20833-314.79167 276.9375-306.3125 313.8229-294.29167 344.1354-282.67189 367.875-271.45314 391.625-260.23439 412.04167-243.69792 429.125-221.84375 446.20835-199.98958 454.75-171.76563 454.75-137.17188 454.75-107.859378 446.98439-81.65625 431.45314-58.5625 415.92189-35.479166 393.125-17.666668 363.0625-5.125 333.0104 7.416667 297.13023 13.463542 255.42188 13.015625Z"/>
</g>
</defs>

<g>
<g>
<g>
<path transform="matrix(.059817386,-.000000000000000007325517,-.000000000000000007308068,-.059674909,95.86481,154.57083)" d="M804 0H1063L1368 382 1054 732H824L1138 376 933 146 547 729 549 732H320L5 382 310 0H570L235 376 419 584 804 0Z" fill="#c8ff6e"/>
</g>
</g>
</g>
<g>
<use data-text="n" xlink:href="#font_6_225" transform="matrix(74.2934,0,0,-74.2934,188.1164,155.15087)" fill="#111111"/>
<use data-text="e" xlink:href="#font_6_172" transform="matrix(74.2934,0,0,-74.2934,229.25279,155.15087)" fill="#111111"/>
<use data-text="&#xfffd;" xlink:href="#font_7_13" transform="matrix(74.2934,0,0,-74.2934,271.38569,155.15087)" fill="#111111"/>
<use data-text="h" xlink:href="#font_6_193" transform="matrix(74.2934,0,0,-74.2934,296.57826,155.15087)" fill="#111111"/>
<use data-text="e" xlink:href="#font_6_172" transform="matrix(74.2934,0,0,-74.2934,337.71464,155.15087)" fill="#111111"/>
<use data-text="r" xlink:href="#font_6_252" transform="matrix(74.2934,0,0,-74.2934,379.84754,155.15087)" fill="#111111"/>
<use data-text="o" xlink:href="#font_6_234" transform="matrix(74.2934,0,0,-74.2934,406.53483,155.15087)" fill="#111111"/>
<use data-text="p" xlink:href="#font_6_248" transform="matrix(74.2934,0,0,-74.2934,449.16596,155.15087)" fill="#111111"/>
<use data-text="s" xlink:href="#font_8_1" transform="matrix(74.2934,0,0,-74.2934,495.28483,155.15087)" fill="#111111"/>
</g>
</svg>
